<?xml version="1.0" standalone="no"?>
<!DOCTYPE svg PUBLIC "-//W3C//DTD SVG 20010904//EN"
 "http://www.w3.org/TR/2001/REC-SVG-20010904/DTD/svg10.dtd">
<svg version="1.0" xmlns="http://www.w3.org/2000/svg"
 width="1024.000000pt" height="1024.000000pt" viewBox="0 0 1024.000000 1024.000000"
 preserveAspectRatio="xMidYMid meet">
<metadata>
Created by potrace 1.14, written by Peter Selinger 2001-2017
</metadata>
<g transform="translate(0.000000,1024.000000) scale(0.100000,-0.100000)"
fill="#000000" stroke="none">
<path d="M3052 8844 c-460 -83 -821 -444 -906 -904 -15 -76 -16 -262 -14
-1690 l3 -1605 28 -57 c54 -111 150 -183 275 -209 154 -32 330 61 401 211 l26
55 5 1585 5 1585 23 55 c31 72 75 129 136 174 96 71 -101 66 2481 64 l2330 -3
58 -29 c68 -35 144 -112 178 -181 l24 -50 3 -2536 2 -2536 -25 -98 c-39 -153
-93 -254 -189 -351 -135 -136 -254 -183 -481 -191 -119 -4 -153 -2 -227 16
-286 68 -465 224 -539 471 -22 72 -23 94 -29 575 -4 308 -10 512 -17 530 -48
140 -153 234 -291 264 -38 8 -680 11 -2320 11 -2017 0 -2274 -2 -2327 -16
-115 -29 -198 -97 -249 -204 l-31 -65 -3 -475 c-3 -521 2 -606 49 -788 116
-449 417 -784 866 -963 102 -40 277 -85 388 -98 129 -15 4770 -16 4898 0 640
77 1094 505 1249 1177 l22 97 3 2590 c3 2321 2 2598 -12 2674 -47 249 -140
427 -314 602 -174 173 -352 266 -600 313 -74 14 -336 16 -2445 15 -1927 -1
-2374 -4 -2434 -15z m2821 -5896 c4 -204 10 -327 20 -378 21 -110 70 -264 111
-354 20 -43 36 -80 36 -82 0 -2 -735 -4 -1634 -4 l-1633 0 -99 25 c-152 39
-253 93 -350 189 -87 87 -130 158 -167 276 -18 57 -21 99 -24 348 l-5 282
1870 0 1870 0 5 -302z"/>
<path d="M3944 7360 c-201 -29 -353 -236 -315 -427 25 -127 98 -223 211 -277
l65 -31 1590 0 1590 0 62 29 c111 51 192 159 211 278 32 209 -109 398 -319
428 -76 11 -3020 11 -3095 0z"/>
<path d="M3902 5854 c-102 -27 -188 -98 -237 -193 -53 -105 -54 -225 -3 -330
35 -71 122 -153 193 -182 l60 -24 800 -3 c582 -2 815 0 855 8 204 44 337 252
286 449 -36 142 -132 239 -271 276 -85 22 -1601 22 -1683 -1z"/>
</g>
</svg>
